<?xml version="1.0"?>
<svg xmlns="http://www.w3.org/2000/svg" xmlns:xlink="http://www.w3.org/1999/xlink" version="1.1" id="Capa_1" x="0px" y="0px" viewBox="0 0 222 222" style="enable-background:new 0 0 222 222;" xml:space="preserve" width="70px" height="70px" class=""><g><g>
	<path d="M165.463,42.849l-34.878,5.158c-1.797,0.266-3.201,1.568-3.682,3.241h-7.317v-2.723c0-3.313-2.687-6-6-6H98.505   c-3.313,0-6,2.686-6,6v2.723h-4.729c-11.723,0-21.26,9.537-21.26,21.26c0,3.313,2.687,6,6,6s6-2.687,6-6   c0-5.106,4.154-9.26,9.26-9.26h4.728v1.205c-9.573,9.604-15.013,22.689-15.013,36.316v80.223c0,3.313,2.687,6,6,6H128.6   c3.313,0,6-2.687,6-6V100.77c0-13.627-5.44-26.711-15.014-36.316v-1.205h7.317c0.481,1.673,1.885,2.975,3.682,3.241l34.878,5.158   c2.742,0.405,5.204-1.719,5.204-4.491V47.34C170.667,44.568,168.205,42.444,165.463,42.849z M89.492,169.5H122.6v5.492H89.492   V169.5z M109.569,71.481c8.281,7.464,13.031,18.14,13.031,29.288v56.73H89.492v-56.73c0-11.148,4.75-21.824,13.031-29.288   c1.262-1.138,1.983-2.757,1.983-4.457v-3.776h3.081v3.776C107.586,68.724,108.307,70.344,109.569,71.481z" data-original="#000000" class="active-path" data-old_color="#000000" fill="#E84C3D"/>
	<path d="M111,0C49.794,0,0,49.794,0,111s49.794,111,111,111s111-49.794,111-111S172.206,0,111,0z M111,210   c-54.589,0-99-44.411-99-99s44.411-99,99-99s99,44.411,99,99S165.589,210,111,210z" data-original="#000000" class="active-path" data-old_color="#000000" fill="#E84C3D"/>
</g></g> </svg>
