<?xml version="1.0"?>
<svg xmlns="http://www.w3.org/2000/svg" xmlns:xlink="http://www.w3.org/1999/xlink" version="1.1" id="Capa_1" x="0px" y="0px" width="40px" height="40px" viewBox="0 0 440.782 440.783" style="enable-background:new 0 0 440.782 440.783;" xml:space="preserve" class="hovered-paths"><g><g>
	<g>
		<path d="M233,287.427h43.246c0.593-1.114,1.249-2.195,1.826-3.319c1.033-2.036,1.947-4.137,2.888-6.225    c0.649-1.429,1.354-2.808,1.947-4.262c0.981-2.353,1.815-4.768,2.672-7.183c0.439-1.233,0.954-2.446,1.359-3.695    c1.212-3.695,2.295-7.443,3.217-11.248c2.898-11.85,4.368-23.959,4.368-35.985c0-23.715-5.633-46.678-15.885-67.272h-52.866    V254.88h1.862c2.961,0,5.376,2.394,5.376,5.375v27.172H233z" data-original="#000000" class="hovered-path active-path" data-old_color="#000000" fill="#E84C3D"/>
		<path d="M220.392,0C98.87,0,0,98.871,0,220.392c0,121.513,98.87,220.391,220.391,220.391    c121.523,0,220.391-98.878,220.391-220.391C440.782,98.876,341.915,0,220.392,0z M346.828,369.874    c-15.938,5.082-32.514,7.664-49.292,7.664c-2.607,0-5.212-0.083-7.789-0.198c-2.069-0.105-3.91-1.387-4.705-3.292    c-6.487-15.543-22.024-28.374-41.568-34.368c-0.006,0-0.011,0-0.011,0c-3.291-1.008-6.83-1.742-10.463-2.357v42.312    c0,2.971-2.415,5.375-5.376,5.375h-14.445c-2.968,0-5.375-2.404-5.375-5.375V336.54c-4.139,0.441-8.21,1.05-12.068,2.038    c-21.557,5.475-38.586,18.771-45.558,35.59c-0.821,1.985-2.753,3.287-4.903,3.318l-2.021,0.041    c-17.245,0-34.289-2.729-50.677-8.136c-2.287-0.756-3.795-2.93-3.693-5.323c1.918-45.061,20.27-86.437,50.409-114.143    c-2.467-11.344-3.774-22.908-3.774-34.405c0-26.3,6.483-51.705,18.212-74.351c0.171-0.506,0.431-0.937,0.735-1.362    c13.767-25.968,34.513-48.147,60.555-63.606V46.809c0-2.971,2.41-5.375,5.375-5.375c2.966,0,5.376,2.405,5.376,5.375v29.392    c49.098,29.136,79.502,82.185,79.502,139.319c0,11.847-1.392,23.744-4.015,35.443c29.579,27.803,47.521,68.969,49.308,113.577    C350.661,366.955,349.129,369.139,346.828,369.874z" data-original="#000000" class="hovered-path active-path" data-old_color="#000000" fill="#E84C3D"/>
		<path d="M297.516,264.844c-0.419,1.291-0.871,2.565-1.312,3.854c-0.834,2.446-1.732,4.859-2.698,7.259    c-0.52,1.298-1.045,2.599-1.612,3.89c-1.045,2.437-2.18,4.836-3.344,7.225c-0.547,1.102-1.051,2.226-1.633,3.327    c-0.714,1.365-1.465,2.708-2.226,4.053c-0.263,0.803-0.641,1.564-1.233,2.136c-0.683,1.191-1.312,2.384-2.025,3.55    c-0.064,0.109-0.111,0.21-0.18,0.319c-2.016,3.26-4.173,6.44-6.425,9.569c-0.714,1.003-1.47,1.942-2.21,2.919    c-1.607,2.132-3.251,4.221-4.96,6.269c-0.909,1.092-1.839,2.151-2.783,3.229c-1.69,1.904-3.434,3.789-5.218,5.638    c-0.977,1.008-1.922,2-2.919,2.981c-0.509,0.483-0.966,1.008-1.459,1.48c17.438,7.274,30.997,19.37,38.258,34.204    c15.501,0.462,31.14-1.574,46.079-5.905c-2.436-38.021-17.318-73.051-41.438-97.901    C297.967,263.574,297.726,264.193,297.516,264.844z" data-original="#000000" class="hovered-path active-path" data-old_color="#000000" fill="#E84C3D"/>
		<path d="M258.959,312.872c1.345-1.597,2.599-3.251,3.88-4.898c1.08-1.396,2.204-2.772,3.243-4.199    c1.239-1.722,2.384-3.508,3.55-5.276c0.072-0.109,0.125-0.205,0.198-0.319H233v28.168c3.664,0.557,7.203,1.291,10.615,2.193    c1.201-1.07,2.356-2.162,3.527-3.265c1.343-1.26,2.698-2.509,3.983-3.821c1.455-1.47,2.82-3.02,4.21-4.547    C256.549,315.564,257.793,314.25,258.959,312.872z" data-original="#000000" class="hovered-path active-path" data-old_color="#000000" fill="#E84C3D"/>
		<path d="M146.264,215.521c0,11.728,1.387,23.507,4.129,35.035c0,0,0.005,0,0.005,0.011c0.897,3.779,1.94,7.5,3.113,11.17    c0.396,1.238,0.892,2.436,1.322,3.669c0.832,2.399,1.649,4.814,2.596,7.14c0.601,1.475,1.305,2.903,1.95,4.362    c0.903,2.036,1.775,4.095,2.77,6.09c0.753,1.496,1.601,2.96,2.402,4.44h43.239V260.26c0-2.971,2.41-5.375,5.376-5.375h1.845    V148.249h-52.861C151.897,168.842,146.264,191.806,146.264,215.521z" data-original="#000000" class="hovered-path active-path" data-old_color="#000000" fill="#E84C3D"/>
		<path d="M220.392,85.427c-21.798,12.953-39.573,31.006-52.287,52.077h104.582C259.961,116.427,242.198,98.374,220.392,85.427z" data-original="#000000" class="hovered-path active-path" data-old_color="#000000" fill="#E84C3D"/>
		<path d="M179.903,326.765c-1.767-1.867-3.5-3.758-5.177-5.711c-0.908-1.049-1.805-2.116-2.687-3.187    c-1.672-2.046-3.273-4.137-4.838-6.24c-0.725-0.994-1.478-1.953-2.181-2.957c-2.097-2.977-4.102-5.989-5.989-9.098    c-0.098-0.151-0.205-0.309-0.297-0.46c-1.971-3.267-3.792-6.614-5.53-10.017c-0.532-1.039-1.01-2.126-1.522-3.171    c-1.161-2.409-2.278-4.84-3.32-7.308c-0.534-1.249-1.038-2.54-1.539-3.81c-0.935-2.384-1.812-4.81-2.638-7.245    c-0.43-1.271-0.866-2.529-1.265-3.812c-0.2-0.629-0.436-1.239-0.627-1.884c-24.659,24.819-39.898,60.09-42.449,98.543    c13.604,4.077,27.667,6.209,41.879,6.354c7.788-15.903,23.026-28.771,42.21-35.79c-0.428-0.419-0.821-0.876-1.247-1.302    C181.738,328.718,180.829,327.742,179.903,326.765z" data-original="#000000" class="hovered-path active-path" data-old_color="#000000" fill="#E84C3D"/>
		<polygon points="218.548,330.629 218.548,374.252 222.249,374.252 222.249,331.071 222.249,265.631 218.548,265.631   " data-original="#000000" class="hovered-path active-path" data-old_color="#000000" fill="#E84C3D"/>
		<path d="M173.89,302.608c1.011,1.449,2.113,2.813,3.182,4.21c1.251,1.649,2.482,3.309,3.806,4.914    c1.128,1.365,2.338,2.666,3.521,3.988c1.375,1.556,2.736,3.119,4.176,4.604c1.248,1.291,2.564,2.524,3.859,3.78    c1.173,1.133,2.344,2.257,3.554,3.358c3.827-0.834,7.779-1.464,11.811-1.852v-27.439h-36.822    C171.937,299.658,172.868,301.16,173.89,302.608z" data-original="#000000" class="hovered-path active-path" data-old_color="#000000" fill="#E84C3D"/>
	</g>
</g></g> </svg>
