<?xml version="1.0"?>
<svg xmlns="http://www.w3.org/2000/svg" xmlns:xlink="http://www.w3.org/1999/xlink" version="1.1" id="Capa_1" x="0px" y="0px" width="70px" height="70px" viewBox="0 0 53.24 53.24" style="enable-background:new 0 0 53.24 53.24;" xml:space="preserve" class=""><g><g>
	<g>
		<path d="M26.62,20.446c-3.606,0-6.709,3.327-7.586,4.361c0.878,1.033,3.986,4.361,7.586,4.361c3.606,0,6.71-3.327,7.587-4.361    C33.329,23.774,30.221,20.446,26.62,20.446z M26.62,27.62c-1.553,0-2.813-1.259-2.813-2.813c0-1.554,1.26-2.813,2.813-2.813    c1.553,0,2.813,1.259,2.813,2.813C29.434,26.361,28.172,27.62,26.62,27.62z" data-original="#000000" class="active-path" data-old_color="#000000" fill="#E84C3D"/>
		<path d="M26.62,0C11.918,0,0,11.918,0,26.62s11.918,26.62,26.62,26.62s26.62-11.918,26.62-26.62S41.321,0,26.62,0z M34.428,43.277    c-2.223,2.243-4.849,3.38-7.808,3.38s-5.585-1.138-7.807-3.38c-8.734-8.818-8.616-31.755-8.606-32.728l0.005-0.503l0.503,0.008    c13.29,0.21,15.467-2.644,15.487-2.672l0.438-0.625l0.407,0.639c0.012,0.015,2.168,2.871,15.479,2.658l0.502-0.008l0.006,0.503    C43.043,11.522,43.161,34.459,34.428,43.277z" data-original="#000000" class="active-path" data-old_color="#000000" fill="#E84C3D"/>
	</g>
</g></g> </svg>
